<svg width="327" height="377" viewBox="0 0 327 377" fill="none" xmlns="http://www.w3.org/2000/svg">
<g clip-path="url(#clip0_0_234)">
<path d="M325.333 352.873C309.461 343.343 293.095 335.175 276.011 328.027C276.011 328.027 276.011 328.027 275.973 328.027C275.707 327.914 275.442 327.801 275.177 327.687C271.389 326.137 269.646 331.847 272.563 333.889C283.132 341.263 293.664 348.638 304.233 356.012C247.902 352.306 188.351 346.596 141.187 313.128C93.6452 279.395 72.5068 225.316 91.7132 172.22C139.521 175.397 189.79 153.879 221.763 119.579C234.757 105.624 254.039 74.7655 226.233 64.4035C200.019 54.6089 162.402 79.6817 143.044 94.4304C118.951 112.772 98.9108 137.693 87.4704 165.262C83.8715 164.96 80.3485 164.506 76.9012 163.901C46.1786 158.493 14.509 140.492 6.81893 108.196C-2.91682 67.1642 28.1846 30.784 53.5657 2.72363C54.9295 1.21094 52.7323 -0.982458 51.3306 0.492414C26.7071 26.2081 0.795648 55.3652 0.000120026 93.069C-0.643879 124.079 19.1686 148.207 46.4059 160.913C58.6798 166.624 71.7113 170.103 84.9701 171.653C73.7191 202.852 73.7191 237.039 91.3722 268.806C132.891 343.419 222.104 356.844 300.255 362.517L281.466 370.874C277.488 372.652 280.935 378.476 284.875 376.736C294.8 372.349 304.725 367.925 314.613 363.538C315.067 363.538 315.522 363.613 315.976 363.613C317.643 363.727 318.628 362.781 319.007 361.571C321.09 360.664 323.174 359.718 325.258 358.811C327.682 357.752 327.265 354.159 325.258 352.949L325.333 352.873ZM99.7821 154.219C113.571 128.844 134.558 107.25 158.765 91.6698C171.039 83.766 184.563 76.8454 198.541 72.4586C204.072 70.719 210.285 69.0551 216.119 69.4332C233.772 70.5677 236.045 86.9048 228.62 100.141C204.299 143.593 144.104 167.607 94.2134 165.678C95.8423 161.821 97.6986 158.001 99.7442 154.182L99.7821 154.219Z" fill="#49B3EF"/>
</g>
<defs>
<clipPath id="clip0_0_234">
<rect width="327" height="377" fill="white"/>
</clipPath>
</defs>
</svg>
