<svg width="164" height="54" viewBox="0 0 164 54" fill="none" xmlns="http://www.w3.org/2000/svg">
<path d="M76.8384 27.0896H66.9807V11.5824H70.2821V24.1834H76.8384V27.0896ZM89.4535 27.0896H86.5008V25.6714C85.7336 26.5316 84.3852 27.3686 82.5485 27.3686C80.0841 27.3686 78.9216 26.0201 78.9216 23.8347V15.8602H81.8742V22.6722C81.8742 24.2299 82.688 24.7414 83.9434 24.7414C85.0826 24.7414 85.9894 24.1137 86.5008 23.4627V15.8602H89.4535V27.0896ZM109.287 27.0896H106.312V19.9986C106.312 18.9524 105.847 18.2084 104.638 18.2084C103.591 18.2084 102.731 18.9059 102.313 19.5103V27.0896H99.3368V19.9986C99.3368 18.9524 98.8718 18.2084 97.6628 18.2084C96.6399 18.2084 95.7797 18.9059 95.3379 19.5336V27.0896H92.3853V15.8602H95.3379V17.3249C95.8029 16.6507 97.2909 15.5812 99.0113 15.5812C100.662 15.5812 101.708 16.3484 102.127 17.6272C102.778 16.6042 104.266 15.5812 105.986 15.5812C108.055 15.5812 109.287 16.6739 109.287 18.9756V27.0896ZM113.648 14.2095C112.695 14.2095 111.881 13.419 111.881 12.4426C111.881 11.4661 112.695 10.6756 113.648 10.6756C114.625 10.6756 115.415 11.4661 115.415 12.4426C115.415 13.419 114.625 14.2095 113.648 14.2095ZM115.136 27.0896H112.183V15.8602H115.136V27.0896ZM128.596 27.0896H125.643V20.3008C125.643 18.7431 124.829 18.2084 123.574 18.2084C122.411 18.2084 121.505 18.8594 121.017 19.5336V27.0896H118.064V15.8602H121.017V17.3249C121.737 16.4647 123.109 15.5812 124.946 15.5812C127.41 15.5812 128.596 16.9762 128.596 19.1616V27.0896ZM141.222 27.0896H138.27V25.9271C137.503 26.8339 136.177 27.3686 134.713 27.3686C132.923 27.3686 130.807 26.1596 130.807 23.6487C130.807 21.0215 132.923 20.0683 134.713 20.0683C136.201 20.0683 137.526 20.5333 138.27 21.44V19.8823C138.27 18.7431 137.293 17.9991 135.805 17.9991C134.596 17.9991 133.48 18.4409 132.527 19.3244L131.411 17.3482C132.783 16.1392 134.55 15.5812 136.317 15.5812C138.874 15.5812 141.222 16.6042 141.222 19.8358V27.0896ZM138.27 24.3927V22.9977C137.782 22.3468 136.852 22.0213 135.898 22.0213C134.736 22.0213 133.783 22.649 133.783 23.7185C133.783 24.7647 134.736 25.3692 135.898 25.3692C136.852 25.3692 137.782 25.0437 138.27 24.3927ZM147.104 27.0896H144.151V15.8602H147.104V17.3947C147.894 16.3949 149.289 15.6045 150.684 15.6045V18.4874C150.475 18.4409 150.196 18.4176 149.87 18.4176C148.894 18.4176 147.592 18.9524 147.104 19.6731V27.0896ZM152.134 31.4837L152.576 28.8333C152.831 28.9495 153.227 29.0193 153.506 29.0193C154.273 29.0193 154.784 28.81 155.063 28.2056L155.482 27.2523L150.925 15.8602H154.087L157.016 23.672L159.946 15.8602H163.131L157.853 28.9263C157.016 31.042 155.528 31.6 153.599 31.6465C153.25 31.6465 152.506 31.5767 152.134 31.4837Z" fill="black"/>
<path d="M73.6765 44.2451H73.072V40.316C73.072 39.5255 72.7349 39.0373 71.9445 39.0373C71.34 39.0373 70.6541 39.479 70.3403 39.9905V44.2451H69.7242V40.316C69.7242 39.5255 69.3987 39.0373 68.5966 39.0373C68.0037 39.0373 67.3295 39.4906 66.9924 40.0021V44.2451H66.3879V38.6304H66.9924V39.479C67.2249 39.1187 67.9921 38.4909 68.8058 38.4909C69.6777 38.4909 70.1426 39.0024 70.2821 39.5488C70.596 39.0257 71.3516 38.4909 72.1421 38.4909C73.1767 38.4909 73.6765 39.0722 73.6765 40.1997V44.2451ZM85.546 44.2451H84.9415V43.5825C84.4416 44.1289 83.8139 44.3846 83.0351 44.3846C82.0702 44.3846 81.0705 43.722 81.0705 42.513C81.0705 41.2925 82.0586 40.6531 83.0351 40.6531C83.8139 40.6531 84.4533 40.9089 84.9415 41.4552V40.316C84.9415 39.479 84.2673 39.0257 83.4303 39.0257C82.7328 39.0257 82.1865 39.2698 81.675 39.851L81.3379 39.4325C81.9191 38.8048 82.5701 38.4909 83.5001 38.4909C84.6393 38.4909 85.546 39.0373 85.546 40.2927V44.2451ZM84.9415 43.1408V41.9086C84.5463 41.3971 83.9185 41.1297 83.2443 41.1297C82.3143 41.1297 81.7099 41.7226 81.7099 42.5247C81.7099 43.3151 82.3143 43.908 83.2443 43.908C83.9185 43.908 84.5463 43.6523 84.9415 43.1408ZM93.8516 44.2451H93.2471V38.6304H93.8516V39.5953C94.3282 38.9675 94.9676 38.5142 95.7464 38.5142V39.1768C95.6418 39.1535 95.5604 39.1535 95.4442 39.1535C94.8746 39.1535 94.1073 39.665 93.8516 40.1532V44.2451ZM107.457 44.2451H106.643L104.4 41.5715L103.353 42.5595V44.2451H102.749V36.4915H103.353V41.8388L106.666 38.6304H107.468L104.853 41.1646L107.457 44.2451ZM113.844 41.432C113.844 39.8045 114.995 38.4909 116.552 38.4909C118.261 38.4909 119.203 39.851 119.203 41.4668V41.6296H114.506C114.564 42.8502 115.378 43.8615 116.703 43.8615C117.412 43.8615 118.063 43.5941 118.54 43.0827L118.854 43.4779C118.296 44.0591 117.587 44.3846 116.657 44.3846C115.018 44.3846 113.844 43.164 113.844 41.432ZM116.541 39.014C115.215 39.014 114.553 40.1765 114.506 41.153H118.587C118.575 40.1997 117.947 39.014 116.541 39.014ZM127.798 44.3846C127.054 44.3846 126.693 43.9313 126.693 43.164V39.1652H125.763V38.6304H126.693V37.096H127.309V38.6304H128.449V39.1652H127.309V43.071C127.309 43.5244 127.495 43.8383 127.891 43.8383C128.158 43.8383 128.391 43.7104 128.518 43.5709L128.751 44.0359C128.53 44.2451 128.263 44.3846 127.798 44.3846ZM135.893 37.6772C135.649 37.6772 135.428 37.468 135.428 37.2122C135.428 36.9565 135.649 36.7472 135.893 36.7472C136.149 36.7472 136.358 36.9565 136.358 37.2122C136.358 37.468 136.149 37.6772 135.893 37.6772ZM136.195 44.2451H135.591V38.6304H136.195V44.2451ZM148.283 44.2451H147.679V40.4439C147.679 39.3628 147.132 39.0373 146.319 39.0373C145.598 39.0373 144.854 39.4906 144.494 40.0021V44.2451H143.889V38.6304H144.494V39.479C144.9 38.9908 145.703 38.4909 146.516 38.4909C147.656 38.4909 148.283 39.0489 148.283 40.316V44.2451ZM155.991 45.6749L156.34 45.21C156.828 45.7912 157.363 46.0004 158.2 46.0004C159.222 46.0004 160.118 45.489 160.118 44.1986V43.3151C159.722 43.8848 159.002 44.3614 158.165 44.3614C156.677 44.3614 155.654 43.2338 155.654 41.432C155.654 39.6534 156.677 38.4909 158.165 38.4909C158.967 38.4909 159.664 38.8978 160.118 39.5371V38.6304H160.734V44.187C160.734 45.9074 159.571 46.5235 158.2 46.5235C157.258 46.5235 156.653 46.3492 155.991 45.6749ZM160.118 42.792V40.0603C159.792 39.5139 159.048 39.0373 158.269 39.0373C157.025 39.0373 156.305 40.0719 156.305 41.432C156.305 42.792 157.025 43.815 158.269 43.815C159.048 43.815 159.792 43.3384 160.118 42.792Z" fill="black"/>
<path d="M26.7405 9.06487L9.06487 26.7393L11.8969 29.5714L7.3641 34.1038L0 26.7393L26.7405 0L53.4802 26.7393L42.603 37.6173L38.071 33.0848L44.4157 26.7393L26.7405 9.06487Z" fill="url(#paint0_linear_0_237)"/>
<path d="M26.7405 9.06487L9.06487 26.7393L11.8969 29.5714L7.3641 34.1038L0 26.7393L26.7405 0L44.4157 26.7393L26.7405 9.06487Z" fill="url(#paint1_linear_0_237)"/>
<path d="M26.7407 44.4155L33.5384 37.6167L26.7407 53.4796V44.4155Z" fill="url(#paint2_linear_0_237)"/>
<path d="M26.7405 44.4155L16.4282 34.1033L26.7405 53.4796V44.4155Z" fill="url(#paint3_linear_0_237)"/>
<path d="M26.7407 53.4796L38.0712 42.1495L33.5384 37.6167L26.7407 53.4796Z" fill="url(#paint4_linear_0_237)"/>
<path d="M16.428 34.1033L11.896 38.6357L26.7403 53.4796L16.428 34.1033Z" fill="url(#paint5_linear_0_237)"/>
<defs>
<linearGradient id="paint0_linear_0_237" x1="3.59225" y1="18.8086" x2="57.0726" y2="18.8086" gradientUnits="userSpaceOnUse">
<stop stop-color="#797A7D"/>
<stop offset="0.4677" stop-color="#97999B"/>
<stop offset="0.9677" stop-color="#D1D3D4"/>
</linearGradient>
<linearGradient id="paint1_linear_0_237" x1="31.6592" y1="31.0914" x2="6.48788" y2="6.89754" gradientUnits="userSpaceOnUse">
<stop stop-color="#797A7D"/>
<stop offset="0.4677" stop-color="#97999B"/>
<stop offset="0.9677" stop-color="#D1D3D4"/>
</linearGradient>
<linearGradient id="paint2_linear_0_237" x1="25.4592" y1="49.627" x2="29.4713" y2="46.1307" gradientUnits="userSpaceOnUse">
<stop stop-color="#55D1FF"/>
<stop offset="0.9624" stop-color="#AAEFFF"/>
</linearGradient>
<linearGradient id="paint3_linear_0_237" x1="17.9628" y1="44.0872" x2="30.7424" y2="43.0439" gradientUnits="userSpaceOnUse">
<stop offset="0.0376" stop-color="#7FE0FF"/>
<stop offset="1" stop-color="#1EA9E1"/>
</linearGradient>
<linearGradient id="paint4_linear_0_237" x1="26.6322" y1="43.2005" x2="33.7393" y2="47.9577" gradientUnits="userSpaceOnUse">
<stop offset="0.0376" stop-color="#043C84"/>
<stop offset="1" stop-color="#1EA9E1"/>
</linearGradient>
<linearGradient id="paint5_linear_0_237" x1="23.9169" y1="42.0951" x2="17.6122" y2="46.6803" gradientUnits="userSpaceOnUse">
<stop offset="0.0376" stop-color="#043C84"/>
<stop offset="1" stop-color="#1EA9E1"/>
</linearGradient>
</defs>
</svg>
